<svg width="120" height="49" viewBox="0 0 120 49" fill="none" xmlns="http://www.w3.org/2000/svg">
<rect x="6" y="12" width="114" height="32" fill="#CBF0FB"/>
<path d="M24.9278 25.972L34.8179 37.5824L27.0417 44.2081L17.1496 32.5984L11.4277 40.0616L3.10207 8.22989L33.2061 21.5078L24.9297 25.9713L24.9278 25.972ZM29.0569 37.1205L18.5365 24.7724L23.9121 21.8758L9.19601 15.3865L13.2687 30.9433L16.9812 26.0997L27.5016 38.4479L29.0569 37.1205Z" fill="#0A4D87"/>
<path d="M56.2949 30.3711C56.1517 31.888 55.5918 33.0729 54.6152 33.9258C53.6387 34.7721 52.3398 35.1953 50.7188 35.1953C49.5859 35.1953 48.5866 34.9284 47.7207 34.3945C46.8613 33.8542 46.1973 33.0892 45.7285 32.0996C45.2598 31.11 45.0156 29.9609 44.9961 28.6523V27.3242C44.9961 25.9831 45.2337 24.8014 45.709 23.7793C46.1842 22.7572 46.8646 21.9694 47.75 21.416C48.6419 20.8626 49.6706 20.5859 50.8359 20.5859C52.4049 20.5859 53.668 21.0124 54.625 21.8652C55.582 22.7181 56.1387 23.9225 56.2949 25.4785H53.834C53.7168 24.4564 53.4173 23.7207 52.9355 23.2715C52.4603 22.8158 51.7604 22.5879 50.8359 22.5879C49.7617 22.5879 48.9349 22.9818 48.3555 23.7695C47.7826 24.5508 47.4896 25.6999 47.4766 27.2168V28.4766C47.4766 30.013 47.75 31.1849 48.2969 31.9922C48.8503 32.7995 49.6576 33.2031 50.7188 33.2031C51.6888 33.2031 52.418 32.985 52.9062 32.5488C53.3945 32.1126 53.7038 31.3867 53.834 30.3711H56.2949ZM60.6824 33.0273H67.1375V35H58.2117V20.7812H60.6824V33.0273ZM71.3395 35H68.8785V20.7812H71.3395V35ZM85.3754 28.2617C85.3754 29.6094 85.1605 30.778 84.7309 31.7676C84.3077 32.7507 83.712 33.5319 82.9438 34.1113L85.3852 36.0156L83.7836 37.4609L80.7563 35.0684C80.3591 35.153 79.9327 35.1953 79.477 35.1953C78.3311 35.1953 77.3057 34.9154 76.4008 34.3555C75.5023 33.7891 74.8057 32.985 74.3109 31.9434C73.8227 30.9017 73.5753 29.7005 73.5688 28.3398V27.5391C73.5688 26.1523 73.8129 24.9284 74.3012 23.8672C74.796 22.806 75.4893 21.9954 76.3813 21.4355C77.2797 20.8691 78.3051 20.5859 79.4574 20.5859C80.6293 20.5859 81.6612 20.8659 82.5531 21.4258C83.4516 21.9792 84.1449 22.7799 84.6332 23.8281C85.1215 24.8698 85.3689 26.084 85.3754 27.4707V28.2617ZM82.8949 27.5195C82.8949 25.918 82.5954 24.7038 81.9965 23.877C81.3975 23.0501 80.5512 22.6367 79.4574 22.6367C78.3962 22.6367 77.5629 23.0566 76.9574 23.8965C76.3585 24.7298 76.0525 25.9082 76.0395 27.4316V28.2617C76.0395 29.7982 76.3389 30.9993 76.9379 31.8652C77.5434 32.7311 78.3897 33.1641 79.477 33.1641C80.5772 33.1641 81.4203 32.7474 82.0063 31.9141C82.5987 31.0807 82.8949 29.8633 82.8949 28.2617V27.5195ZM97.9855 20.7812V30.2832C97.9855 31.7936 97.5005 32.9915 96.5305 33.877C95.5669 34.7559 94.2811 35.1953 92.673 35.1953C91.0454 35.1953 89.7531 34.7624 88.7961 33.8965C87.8391 33.0241 87.3605 31.8164 87.3605 30.2734V20.7812H89.8215V30.293C89.8215 31.2435 90.0624 31.9694 90.5441 32.4707C91.0259 32.972 91.7355 33.2227 92.673 33.2227C94.5741 33.2227 95.5246 32.2201 95.5246 30.2148V20.7812H97.9855ZM108.643 28.6523H102.803V33.0273H109.629V35H100.332V20.7812H109.561V22.7734H102.803V26.6992H108.643V28.6523Z" fill="#0A4D87"/>
</svg>
