<svg width="480" height="78" viewBox="0 0 480 78" fill="none" xmlns="http://www.w3.org/2000/svg">
<path opacity="0.9" d="M396.656 77.9942L479.552 -4.90131H395.05L312.151 78L396.656 77.9942Z" fill="#AADD68"/>
<path d="M312.461 -4.73054V77.5573H48.442L-3 -7.00004L312.461 -4.73054Z" fill="#0A4D87"/>
<path opacity="0.7" d="M312.143 77.9942L229.246 -4.90131H313.747L396.647 78L312.143 77.9942Z" fill="#3EB2D2"/>
<path fill-rule="evenodd" clip-rule="evenodd" d="M114.746 17.4264L102.998 24.2089C102.407 24.5502 102.407 25.4033 102.998 25.7446L114.746 32.5271C115.337 32.8683 116.076 32.4418 116.076 31.7592L116.076 18.1942C116.076 17.5117 115.337 17.0851 114.746 17.4264ZM101.816 22.1614C99.6488 23.4126 99.6488 26.5408 101.816 27.7921L113.564 34.5746C115.731 35.8259 118.44 34.2618 118.44 31.7592L118.44 18.1942C118.44 15.6917 115.731 14.1276 113.564 15.3789L101.816 22.1614Z" fill="white"/>
<path fill-rule="evenodd" clip-rule="evenodd" d="M87.2608 29.8391L75.5132 36.6216C74.9221 36.9629 74.9221 37.816 75.5132 38.1573L87.2608 44.9398C87.8519 45.281 88.5907 44.8545 88.5907 44.172L88.5907 30.607C88.5907 29.9244 87.8519 29.4979 87.2608 29.8391ZM74.331 34.5741C72.1637 35.8254 72.1637 38.9536 74.331 40.2048L86.0787 46.9873C88.246 48.2386 90.9551 46.6745 90.9551 44.172L90.9551 30.6069C90.9551 28.1044 88.2459 26.5403 86.0787 27.7916L74.331 34.5741Z" fill="white"/>
<path fill-rule="evenodd" clip-rule="evenodd" d="M70.2674 41.9928L77.1386 45.96L70.2674 49.9271L70.2674 41.9928ZM78.3208 43.9124C79.897 44.8224 79.897 47.0975 78.3208 48.0075L71.4495 51.9746C69.8733 52.8847 67.9031 51.7471 67.9031 49.9271L67.9031 41.9928C67.9031 40.1728 69.8733 39.0353 71.4495 39.9453L78.3208 43.9124Z" fill="white"/>
<path fill-rule="evenodd" clip-rule="evenodd" d="M89.7729 24.8205L112.16 37.7457C113.933 38.7695 113.933 41.3289 112.16 42.3527L89.7729 55.2778C87.9996 56.3016 85.7831 55.0219 85.7831 52.9743L85.7831 27.124C85.7831 25.0765 87.9996 23.7968 89.7729 24.8205ZM113.342 35.6981C116.691 37.6319 116.691 42.4664 113.342 44.4002L90.955 57.3254C87.6056 59.2592 83.4188 56.8419 83.4188 52.9743L83.4188 27.124C83.4188 23.2564 87.6056 20.8392 90.955 22.773L113.342 35.6981Z" fill="white"/>
<path d="M125.102 25.8273H130.325V27.8113H122.643V15.8251H125.102V25.8273Z" fill="white"/>
<path d="M135.67 27.976C134.37 27.976 133.309 27.5753 132.489 26.774C131.675 25.9728 131.268 24.9053 131.268 23.5717V23.3412C131.268 22.4466 131.44 21.6481 131.784 20.9456C132.129 20.2376 132.615 19.6943 133.244 19.3156C133.878 18.9314 134.599 18.7393 135.408 18.7393C136.621 18.7393 137.575 19.1235 138.269 19.8918C138.969 20.6602 139.319 21.7496 139.319 23.1601V24.1315H133.67C133.746 24.7132 133.976 25.1797 134.359 25.531C134.747 25.8822 135.236 26.0578 135.826 26.0578C136.739 26.0578 137.452 25.7258 137.966 25.0617L139.13 26.3707C138.775 26.8756 138.294 27.2707 137.687 27.5561C137.081 27.836 136.408 27.976 135.67 27.976ZM135.4 20.6657C134.93 20.6657 134.547 20.8248 134.252 21.1431C133.962 21.4615 133.776 21.917 133.695 22.5097H136.99V22.3204C136.979 21.7935 136.837 21.3874 136.564 21.102C136.291 20.8111 135.903 20.6657 135.4 20.6657Z" fill="white"/>
<path d="M145.812 27.8113C145.703 27.5973 145.623 27.3311 145.574 27.0128C145 27.6549 144.254 27.976 143.336 27.976C142.467 27.976 141.746 27.7235 141.172 27.2186C140.603 26.7137 140.319 26.077 140.319 25.3087C140.319 24.3647 140.666 23.6403 141.36 23.1354C142.06 22.6304 143.068 22.3752 144.385 22.3698H145.476V21.8594C145.476 21.4477 145.369 21.1184 145.156 20.8715C144.948 20.6245 144.618 20.501 144.164 20.501C143.765 20.501 143.451 20.5971 143.221 20.7892C142.997 20.9812 142.885 21.2447 142.885 21.5795H140.516C140.516 21.0636 140.674 20.5861 140.991 20.147C141.308 19.708 141.756 19.365 142.336 19.118C142.915 18.8655 143.566 18.7393 144.287 18.7393C145.38 18.7393 146.247 19.0165 146.886 19.5708C147.531 20.1196 147.853 20.8934 147.853 21.8923V25.7532C147.859 26.5984 147.976 27.2378 148.206 27.6714V27.8113H145.812ZM143.853 26.1566C144.202 26.1566 144.525 26.0798 144.82 25.9261C145.115 25.767 145.334 25.5557 145.476 25.2922V23.761H144.59C143.404 23.761 142.773 24.1726 142.697 24.9959L142.688 25.1358C142.688 25.4322 142.792 25.6764 143 25.8685C143.208 26.0606 143.492 26.1566 143.853 26.1566Z" fill="white"/>
<path d="M151.854 18.904L151.928 19.933C152.562 19.1372 153.412 18.7393 154.478 18.7393C155.418 18.7393 156.118 19.0165 156.577 19.5708C157.036 20.1251 157.271 20.9538 157.282 22.0569V27.8113H154.912V22.1146C154.912 21.6096 154.803 21.2447 154.585 21.0197C154.366 20.7892 154.002 20.6739 153.494 20.6739C152.827 20.6739 152.327 20.9593 151.994 21.5301V27.8113H149.624V18.904H151.854Z" fill="white"/>
<path d="M132.448 41.7596C132.448 42.9395 132.241 43.9741 131.825 44.8632C131.41 45.7523 130.814 46.4383 130.038 46.9212C129.267 47.4042 128.382 47.6457 127.382 47.6457C126.392 47.6457 125.51 47.4069 124.733 46.9295C123.957 46.452 123.356 45.7715 122.93 44.8879C122.503 43.9988 122.288 42.978 122.282 41.8254V41.2327C122.282 40.0527 122.492 39.0155 122.913 38.1209C123.34 37.2208 123.938 36.5321 124.709 36.0546C125.485 35.5716 126.37 35.3302 127.365 35.3302C128.36 35.3302 129.243 35.5716 130.013 36.0546C130.789 36.5321 131.388 37.2208 131.809 38.1209C132.235 39.0155 132.448 40.05 132.448 41.2245V41.7596ZM129.956 41.2162C129.956 39.9594 129.732 39.0045 129.284 38.3514C128.835 37.6983 128.196 37.3718 127.365 37.3718C126.54 37.3718 125.903 37.6956 125.455 38.3432C125.007 38.9853 124.78 39.9293 124.774 41.1751V41.7596C124.774 42.9835 124.999 43.9329 125.447 44.608C125.895 45.283 126.54 45.6205 127.382 45.6205C128.207 45.6205 128.841 45.2967 129.284 44.6491C129.726 43.996 129.95 43.0466 129.956 41.8007V41.2162Z" fill="white"/>
<path d="M134.728 47.481V40.3189H133.408V38.5737H134.728V37.8163C134.728 36.8175 135.012 36.0436 135.58 35.4948C136.154 34.9405 136.955 34.6633 137.982 34.6633C138.31 34.6633 138.712 34.7182 139.188 34.828L139.163 36.672C138.966 36.6226 138.726 36.5979 138.441 36.5979C137.551 36.5979 137.105 37.0178 137.105 37.8575V38.5737H140.024V38.1621C140.035 37.0425 140.376 36.1808 141.049 35.5771C141.726 34.9679 142.68 34.6633 143.91 34.6633C144.642 34.6633 145.541 34.8252 146.607 35.149L146.263 37.1166C145.727 36.9574 145.309 36.8559 145.009 36.812C144.713 36.7626 144.396 36.7379 144.058 36.7379C142.953 36.7379 142.401 37.2291 142.401 38.2115V38.5737H144.148V40.3189H142.401V47.481H140.024V40.3189H137.105V47.481H134.728ZM147.706 47.481H145.328V38.5737H147.706V47.481Z" fill="white"/>
<path d="M153.363 45.7276C153.8 45.7276 154.155 45.6068 154.429 45.3653C154.702 45.1238 154.844 44.8028 154.855 44.4022H157.077C157.071 45.0059 156.907 45.5602 156.585 46.0651C156.263 46.5645 155.82 46.9542 155.257 47.2341C154.699 47.5085 154.082 47.6457 153.404 47.6457C152.136 47.6457 151.136 47.2423 150.403 46.4355C149.671 45.6233 149.305 44.5037 149.305 43.0767V42.9203C149.305 41.5483 149.668 40.4534 150.395 39.6356C151.122 38.8179 152.12 38.409 153.388 38.409C154.497 38.409 155.385 38.7273 156.052 39.364C156.724 39.9951 157.066 40.8376 157.077 41.8913H154.855C154.844 41.4303 154.702 41.0571 154.429 40.7717C154.155 40.4808 153.795 40.3354 153.347 40.3354C152.795 40.3354 152.376 40.5385 152.092 40.9446C151.813 41.3452 151.674 41.9983 151.674 42.9039V43.1508C151.674 44.0674 151.813 44.726 152.092 45.1266C152.371 45.5272 152.795 45.7276 153.363 45.7276Z" fill="white"/>
<path d="M162.513 47.6457C161.212 47.6457 160.151 47.245 159.332 46.4438C158.517 45.6425 158.11 44.575 158.11 43.2414V43.0109C158.11 42.1163 158.282 41.3178 158.626 40.6153C158.971 39.9073 159.457 39.364 160.086 38.9853C160.72 38.6011 161.441 38.409 162.25 38.409C163.464 38.409 164.417 38.7932 165.112 39.5616C165.811 40.3299 166.161 41.4193 166.161 42.8298V43.8012H160.512C160.589 44.3829 160.818 44.8494 161.201 45.2007C161.589 45.5519 162.078 45.7276 162.668 45.7276C163.581 45.7276 164.294 45.3955 164.808 44.7314L165.972 46.0404C165.617 46.5453 165.136 46.9404 164.529 47.2258C163.923 47.5057 163.25 47.6457 162.513 47.6457ZM162.242 40.3354C161.772 40.3354 161.389 40.4946 161.094 40.8129C160.805 41.1312 160.619 41.5867 160.537 42.1794H163.833V41.9901C163.822 41.4632 163.68 41.0571 163.406 40.7717C163.133 40.4808 162.745 40.3354 162.242 40.3354Z" fill="white"/>
</svg>
